<svg width="402" height="848" viewBox="0 0 402 848" fill="none" xmlns="http://www.w3.org/2000/svg">
<path d="M221.066 217.633C234.802 218.131 245.488 211.442 251.84 206.098C258.732 200.301 264.418 192.897 268.92 185.165C277.984 169.598 284.386 149.037 285.211 126.291C286.612 87.6237 263.607 55.4113 254.782 44.2003C240.207 25.6858 212.421 26.3622 198.582 45.0283C190.116 56.4468 169.703 86.9611 168.378 123.506C167.605 144.835 170.779 164.797 177.146 180.617C180.3 188.454 184.736 196.515 190.973 203.169C197.082 209.688 207.203 217.131 221.066 217.633Z" fill="white" stroke="white" stroke-width="60"/>
<path d="M144.278 222.025C104.105 213.377 75.3546 182.2 68.6876 174.608C55.4337 159.516 59.0506 135.989 76.5846 125.723C81.8873 122.618 93.8735 116.132 109.347 111.318C124.578 106.58 145.465 102.747 167.456 107.481C175.109 109.129 182.345 111.37 189.081 114.048C203.712 119.863 211.296 133.565 211.759 146.45C211.887 150.017 212.343 154.814 213.316 159.714C214.317 164.751 215.654 168.826 217.044 171.573M144.278 222.025L217.044 171.573M144.278 222.025C159.752 225.357 174.666 226.381 187.967 225.355C203.67 224.145 213.962 213.577 218.256 203.205M144.278 222.025L218.256 203.205M217.044 171.573C222.189 181.74 222.324 193.381 218.256 203.205M217.044 171.573L218.256 203.205" fill="white" stroke="white" stroke-width="60"/>
<path d="M165.404 263.175C93.4108 279.288 22.7523 364.505 32.1551 571.453C33.1505 593.36 48.8798 611.826 70.2366 616.396L74.3566 617.278C104.616 623.753 131.913 600.9 133.31 571.542C135.378 528.094 143.117 476.473 159.042 441.246C167.04 423.556 175.504 413.611 182.858 409.176C188.256 405.92 195.77 403.848 209.284 409.309C223.273 416.422 231.789 423.17 237.302 429.649C242.708 436.001 246.367 443.428 248.654 453.703C253.789 476.781 251.383 508.96 246.678 564.218C246.412 567.338 246.141 570.521 245.867 573.759C243.783 598.391 260.113 617.595 278.929 624.706C279.076 624.762 279.223 624.818 279.367 624.873C293.196 630.178 308.331 629.44 320.972 624.216C333.803 618.914 346.86 607.616 351.094 589.759C365.123 530.599 377.535 452.012 367.556 386.852C362.539 354.092 351.409 321.607 328.938 297.081C305.545 271.548 272.773 257.814 231.655 258.15C219.718 258.248 208.757 262.888 200.513 270.511C192.92 265.302 180.69 259.754 165.404 263.175Z" fill="white" stroke="white" stroke-width="60"/>
<path d="M34.2709 644.916L34.3625 647.498L34.8942 650.026C35.3974 652.419 35.4826 654.903 35.657 659.99C35.7429 662.495 35.8505 665.632 36.0403 669.7C36.5262 680.115 37.6664 693.689 42.3954 708.554C52.027 738.83 74.4674 768.341 120.667 794.357C126.911 800.928 135.934 808.235 147.118 812.767C157.716 817.061 170.884 818.895 184.14 814.856C202.985 820.134 226.859 815.05 250.066 800.245L252.746 798.536L255.008 796.303C270.094 781.411 291.11 754.09 307.876 727.322C316.357 713.782 324.317 699.491 330.063 686.163C335.188 674.276 340.893 658.045 339.289 642.709L309.452 645.83L339.289 642.709C337.734 627.841 329.02 612.01 310.233 602.348C293.401 593.691 270.693 591.092 241.527 593.8C226.774 595.169 215.804 597.158 207.165 598.811C206.557 598.927 205.971 599.04 205.405 599.148C197.472 600.669 193.483 601.434 189.449 601.672C183.277 602.037 174.515 601.387 146.402 588.919L145.483 588.512L144.54 588.167C123.263 580.389 104.727 579.518 90.9619 580.905C84.1288 581.593 78.5304 582.829 74.3882 584.004C72.3149 584.591 70.5968 585.166 69.2598 585.655C69.0473 585.732 68.8444 585.808 68.6509 585.881C68.4935 585.933 68.3333 585.986 68.1704 586.042C66.5442 586.597 64.6237 587.37 62.5235 588.441C58.2992 590.596 53.3302 593.975 48.6872 599.159C38.8577 610.134 33.5853 625.597 34.2709 644.916Z" fill="white" stroke="white" stroke-width="60"/>
<path d="M246.72 413.5L154.72 402C143.554 429.833 119.22 485.8 111.22 487C101.22 488.5 128.22 614 121.22 635.5C114.22 657 246.72 614 246.72 605.5V413.5Z" fill="white"/>
<path d="M2.22083 508.5C-6.77917 609.333 6.82082 812.8 133.221 820C252.021 765.6 95.3875 589.667 2.22083 508.5Z" fill="white"/>
<path d="M251.312 118.432C249.971 155.44 230.392 183.257 217.229 182.78C204.065 182.303 191.369 154.809 192.711 117.801C193.721 89.9435 209.855 64.9057 217.772 54.2272C219.996 51.2285 224.252 51.1509 226.561 54.084C234.997 64.8014 252.33 90.3668 251.312 118.432Z" fill="#A5CA05"/>
<path fill-rule="evenodd" clip-rule="evenodd" d="M230.965 181.753C226.823 185.237 222.01 187.689 217.056 187.509C212.082 187.329 207.723 184.624 204.202 180.866C200.66 177.087 197.606 171.887 195.139 165.757C190.195 153.471 187.29 136.666 187.98 117.63C189.045 88.2718 205.929 62.2534 213.97 51.4085C218.036 45.9242 226.024 45.7518 230.278 51.1566C238.816 62.0017 257.124 88.7348 256.041 118.603C255.343 137.862 249.904 154.831 242.793 167.044C239.242 173.142 235.192 178.197 230.965 181.753ZM217.228 182.78C230.391 183.257 249.97 155.44 251.312 118.431C252.329 90.3667 234.996 64.8012 226.56 54.0839C224.251 51.1507 219.995 51.2284 217.771 54.2271C209.854 64.9056 193.72 89.9434 192.71 117.801C191.368 154.809 204.064 182.303 217.228 182.78Z" fill="#481D08"/>
<mask id="mask0_1006_505" style="mask-type:alpha" maskUnits="userSpaceOnUse" x="192" y="49" width="60" height="134">
<path d="M251.312 118.432C249.97 155.44 230.391 183.258 217.228 182.781C204.064 182.303 191.368 154.81 192.71 117.802C193.87 85.7873 215.006 57.4971 220.689 50.4451C221.431 49.5238 222.768 49.5047 223.539 50.4023C229.596 57.4559 252.476 86.3065 251.312 118.432Z" fill="#A5CA05"/>
</mask>
<g mask="url(#mask0_1006_505)">
<path d="M207.847 183.136C199.013 161.681 217.838 60.6144 228.355 12.7627C217.313 12.7627 188.287 20.0193 160.522 49.0459C125.817 85.329 218.89 209.954 207.847 183.136Z" fill="#CDE078"/>
</g>
<path d="M143.49 187.978C112.602 181.328 88.6795 156.181 82.3208 148.94C81.4034 147.896 81.6494 146.345 82.8493 145.643C91.3759 140.651 123.346 123.713 154.361 130.39C160.53 131.718 166.345 133.521 171.732 135.662C174.08 136.595 175.534 138.908 175.625 141.434C175.992 151.659 178.144 167.843 184.382 180.169C186.583 184.518 184.485 190.433 179.625 190.808C169.162 191.615 156.793 190.842 143.49 187.978Z" fill="#A5CA05"/>
<path fill-rule="evenodd" clip-rule="evenodd" d="M142.494 192.604C109.998 185.608 85.202 159.392 78.765 152.063C75.8972 148.797 76.6761 143.772 80.4583 141.558C84.9054 138.954 95.3705 133.288 108.766 129.121C122.124 124.965 138.755 122.188 155.357 125.762C161.789 127.147 167.855 129.028 173.48 131.263C177.777 132.971 180.205 137.092 180.355 141.263C180.712 151.212 182.819 166.599 188.605 178.032C190.348 181.477 190.391 185.487 189.024 188.789C187.621 192.177 184.524 195.176 179.989 195.526C169.03 196.371 156.201 195.555 142.494 192.604ZM82.321 148.94C88.6797 156.18 112.602 181.327 143.49 187.977C156.793 190.841 169.162 191.614 179.625 190.807C184.485 190.433 186.583 184.518 184.382 180.169C178.144 167.843 175.993 151.658 175.625 141.433C175.534 138.908 174.08 136.595 171.732 135.661C166.345 133.52 160.531 131.717 154.361 130.389C123.346 123.712 91.3761 140.65 82.8494 145.642C81.6496 146.344 81.4035 147.895 82.321 148.94Z" fill="#481D08"/>
<path d="M202.172 198.617C209.181 188.538 226.896 207.329 227.09 212.782C227.264 217.693 209.742 251.61 203.202 280.682C201.879 286.564 199.717 288.785 195.2 284.792C193.296 283.108 190.898 280.978 187.9 278.304C170.24 262.548 193.411 211.214 202.172 198.617Z" fill="#AC693A"/>
<path fill-rule="evenodd" clip-rule="evenodd" d="M230.469 208.047C231.087 209.263 231.757 210.894 231.818 212.612C231.851 213.543 231.682 214.444 231.534 215.089C231.37 215.807 231.14 216.586 230.879 217.385C230.356 218.985 229.616 220.938 228.747 223.122C227.794 225.517 226.618 228.359 225.327 231.479C224.289 233.986 223.177 236.672 222.047 239.452C216.879 252.159 210.996 267.595 207.818 281.719C207.45 283.354 206.975 284.971 206.307 286.385C205.663 287.751 204.63 289.377 202.9 290.455C200.951 291.669 198.771 291.789 196.791 291.186C195.007 290.643 193.429 289.541 192.065 288.335C190.153 286.645 187.75 284.51 184.749 281.833C178.932 276.643 176.905 268.916 176.716 261.089C176.525 253.194 178.171 244.391 180.577 235.973C185.376 219.181 193.561 202.706 198.286 195.912C199.649 193.951 201.428 192.495 203.562 191.683C205.659 190.884 207.797 190.82 209.751 191.137C213.527 191.75 217.148 193.862 220.08 196.128C223.092 198.457 225.835 201.304 227.871 203.989C228.89 205.334 229.792 206.716 230.469 208.047ZM227.089 212.78C226.895 207.326 209.18 188.536 202.171 198.614C193.41 211.212 170.239 262.546 187.899 278.301C190.897 280.975 193.295 283.106 195.2 284.789C199.716 288.782 201.878 286.561 203.201 280.68C207.204 262.886 215.321 243.276 220.977 229.614C224.561 220.955 227.156 214.685 227.089 212.78Z" fill="#481D08"/>
<mask id="mask1_1006_505" style="mask-type:alpha" maskUnits="userSpaceOnUse" x="181" y="195" width="47" height="95">
<path d="M202.171 198.615C209.18 188.537 226.895 207.327 227.089 212.781C227.276 218.058 207.023 256.84 201.931 287.103C201.614 288.988 201.568 290.351 200.121 289.104C198.2 287.447 194.506 284.196 187.899 278.302C170.239 262.547 193.41 211.213 202.171 198.615Z" fill="#AC693A"/>
</mask>
<g mask="url(#mask1_1006_505)">
<path d="M222.044 192.6C208.162 192.6 183.658 244.133 173.141 269.899C168.408 252.547 162.414 214.686 176.296 202.066C193.649 186.29 239.397 192.6 222.044 192.6Z" fill="#CBAB96"/>
</g>
<path d="M188.897 304.522C182.096 297.5 175.044 288.631 165.504 290.766C113.967 302.301 42.8659 368.532 52.3311 576.852C52.7167 585.339 58.8514 592.56 67.1586 594.338L71.404 595.246C83.1498 597.76 94.2338 588.876 94.8048 576.878C99.1912 484.718 127.671 345.583 216.847 383.053C286.54 417.96 282.638 463.771 273.301 573.424C273.027 576.64 272.748 579.911 272.467 583.238C271.678 592.559 277.911 600.906 286.661 604.213C286.86 604.289 287.059 604.364 287.256 604.44C300.052 609.349 316.852 603.322 320.014 589.987C348.48 469.947 366.422 285.197 227.272 286.333C219.772 286.394 213.193 291.448 211.077 298.644C209.993 302.331 209.023 305.996 208.209 309.592C206.842 315.634 204.677 318.102 199.957 314.091C197.52 312.02 194.31 309.276 190.125 305.679C189.696 305.31 189.286 304.924 188.897 304.522Z" fill="#DFA763"/>
<path fill-rule="evenodd" clip-rule="evenodd" d="M47.6029 577.067C38.1035 367.993 109.466 298.458 164.47 286.148C171.109 284.662 176.66 287.149 181.05 290.412C184.433 292.925 187.612 296.289 190.355 299.192C191.03 299.905 191.678 300.591 192.296 301.229C192.586 301.529 192.89 301.816 193.209 302.09C197.39 305.683 200.593 308.422 203.021 310.485C203.034 310.496 203.047 310.507 203.059 310.517C203.233 309.996 203.412 309.346 203.593 308.548C204.432 304.839 205.428 301.076 206.536 297.309C209.229 288.151 217.609 281.679 227.233 281.601C263.181 281.307 289.497 293.072 307.959 313.222C326.275 333.213 336.426 360.983 341.177 392.003C350.669 453.986 338.886 530.915 324.619 591.079C322.612 599.543 316.325 605.425 309.055 608.429C301.814 611.421 293.16 611.774 285.56 608.859C285.37 608.786 285.179 608.713 284.987 608.64C274.608 604.718 266.754 594.619 267.751 582.839C268.03 579.539 268.306 576.294 268.578 573.105L268.585 573.023C273.281 517.873 276.464 479.881 270.09 451.237C266.948 437.115 261.497 425.42 252.778 415.172C244.046 404.91 231.845 395.875 214.869 387.356C193.836 378.558 176.995 380.314 163.217 388.623C149.117 397.127 137.571 412.889 128.342 433.304C109.895 474.109 101.715 531.224 99.5316 577.103C98.8276 591.896 85.1343 603.024 70.4133 599.874L66.1679 598.966C55.7633 596.74 48.0865 587.711 47.6029 577.067ZM216.846 383.053C127.67 345.583 99.1907 484.718 94.8044 576.878C94.2334 588.876 83.1493 597.76 71.4036 595.247L67.1582 594.338C58.8509 592.561 52.7162 585.339 52.3306 576.853C42.8654 368.532 113.966 302.301 165.504 290.766C174.051 288.853 180.602 295.775 186.764 302.286C187.479 303.042 188.189 303.792 188.896 304.522C189.286 304.924 189.695 305.31 190.125 305.679C194.31 309.276 197.52 312.021 199.956 314.091C204.677 318.103 206.842 315.634 208.209 309.592C209.022 305.997 209.992 302.331 211.076 298.644C213.192 291.449 219.771 286.394 227.271 286.333C366.421 285.197 348.479 469.947 320.014 589.987C316.852 603.322 300.052 609.349 287.256 604.44C287.058 604.364 286.86 604.289 286.66 604.213C277.91 600.906 271.678 592.559 272.466 583.238C272.748 579.911 273.026 576.64 273.3 573.424C282.638 463.771 286.539 417.961 216.846 383.053Z" fill="#481D08"/>
<path d="M54.522 652.857C53.5594 625.732 69.2224 622.343 69.2224 622.343C69.2224 622.343 92.5361 612.044 126.639 624.511C187.063 651.309 184.981 637.175 240.048 632.063C295.115 626.95 306.072 644.28 307.182 654.895C310.211 683.855 255.901 761.751 229.364 787.948C200.089 806.624 183.125 799.94 178.302 794.264C160.369 809.412 140.15 793.375 132.282 783.463C41.2754 734.427 60.3458 680.549 54.522 652.857Z" fill="#AC693E"/>
<path fill-rule="evenodd" clip-rule="evenodd" d="M69.2233 622.344C69.2233 622.344 53.5603 625.733 54.523 652.858C55.6268 658.107 55.8363 664.296 56.0705 671.214C57.0721 700.799 58.5252 743.722 132.283 783.464C140.151 793.376 160.37 809.413 178.304 794.265C183.126 799.941 200.09 806.625 229.365 787.949C255.902 761.752 310.212 683.856 307.183 654.896C306.073 644.281 295.116 626.951 240.049 632.064C224.94 633.466 214.133 635.548 205.157 637.277C181.419 641.85 170.485 643.957 126.64 624.512C92.5371 612.045 69.2233 622.344 69.2233 622.344ZM178.06 800.355C187.073 806.663 205.62 808.71 231.91 791.939L232.333 791.669L232.69 791.317C246.307 777.874 266.74 751.525 283.372 724.971C291.704 711.669 299.171 698.176 304.38 686.093C309.491 674.237 312.784 662.955 311.89 654.404C311.175 647.563 307.245 639.149 296.014 633.373C285.092 627.756 267.531 624.759 239.612 627.351C225.625 628.65 215.26 630.523 206.705 632.161C205.886 632.317 205.087 632.471 204.306 632.621C196.853 634.056 191.025 635.178 185.074 635.53C172.315 636.284 158.58 633.5 128.559 620.186L128.414 620.122L128.265 620.067C110.467 613.561 95.3867 612.965 84.6688 614.044C79.3177 614.583 75.0639 615.538 72.1081 616.376C70.6299 616.796 69.4748 617.186 68.6676 617.481C68.2639 617.628 67.947 617.752 67.7199 617.844C67.7141 617.846 67.7084 617.848 67.7027 617.851C67.5154 617.904 67.2869 617.974 67.0225 618.064C66.4049 618.275 65.5869 618.599 64.6402 619.082C62.7429 620.05 60.3264 621.659 57.9868 624.272C53.2218 629.592 49.2776 638.492 49.7933 653.026L49.8078 653.433L49.8917 653.832C50.9033 658.642 51.0944 664.247 51.3255 671.027C51.4032 673.305 51.4853 675.715 51.6046 678.273C52.065 688.14 53.097 699.482 56.9496 711.592C64.687 735.914 83.4688 762.34 129.203 787.178C133.573 792.452 140.923 799.075 149.741 802.648C158.281 806.108 168.411 806.731 178.06 800.355Z" fill="#481D08"/>
<mask id="mask2_1006_505" style="mask-type:alpha" maskUnits="userSpaceOnUse" x="51" y="286" width="289" height="321">
<path d="M188.896 304.521C182.095 297.499 175.043 288.63 165.503 290.765C113.966 302.3 42.8649 368.531 52.3301 576.852C52.7157 585.339 58.8504 592.56 67.1577 594.337L71.4031 595.246C83.1488 597.759 94.2328 588.875 94.8039 576.877C99.1902 484.717 127.67 345.583 216.846 383.052C286.539 417.96 282.637 463.77 273.3 573.424C273.026 576.64 272.747 579.911 272.466 583.238C271.677 592.559 277.91 600.906 286.66 604.213C286.859 604.288 287.058 604.364 287.255 604.439C300.051 609.348 316.851 603.322 320.013 589.986C348.479 469.946 366.421 285.196 227.271 286.332C219.771 286.394 213.192 291.448 211.076 298.644C209.992 302.331 209.022 305.996 208.208 309.591C206.841 315.633 204.676 318.102 199.956 314.091C197.519 312.02 194.309 309.276 190.124 305.679C189.695 305.31 189.285 304.923 188.896 304.521Z" fill="#DFA763"/>
</mask>
<g mask="url(#mask2_1006_505)">
<path d="M163.676 309.339C96.7887 311.863 65.3433 409.249 57.9815 457.626C-22.788 326.376 95.8421 281.995 165.253 276.21C192.597 286.201 230.563 306.815 163.676 309.339Z" fill="#FFCE92"/>
<path d="M301.858 598.453C325.203 582.735 339.685 440.176 344.008 370.862C356.978 421.62 379.027 523.79 376.433 526.41C373.839 529.03 351.575 585.354 340.767 613.189C316.99 614.827 278.512 614.172 301.858 598.453Z" fill="#FFCE92"/>
</g>
<path fill-rule="evenodd" clip-rule="evenodd" d="M330.893 447.37C332.2 447.37 333.259 448.43 333.259 449.736C333.259 451.697 333.302 453.783 333.348 456.056C333.635 470.222 334.071 491.662 325.326 535.387C325.069 536.669 323.823 537.5 322.541 537.243C321.26 536.987 320.429 535.74 320.685 534.459C329.331 491.229 328.903 470.181 328.616 456.09C328.569 453.812 328.527 451.715 328.527 449.736C328.527 448.43 329.586 447.37 330.893 447.37Z" fill="#481D08"/>
<path fill-rule="evenodd" clip-rule="evenodd" d="M317.992 552.127C316.77 551.663 316.156 550.297 316.62 549.075C316.917 548.292 317.144 547.723 317.321 547.28C317.56 546.679 317.708 546.309 317.814 545.949C317.911 545.62 317.944 545.426 317.838 544.756C317.635 543.465 318.516 542.254 319.807 542.05C321.098 541.847 322.31 542.728 322.513 544.019C322.703 545.222 322.69 546.143 322.354 547.285C322.191 547.838 321.917 548.531 321.591 549.352C321.42 549.785 321.235 550.253 321.044 550.755C320.58 551.976 319.214 552.591 317.992 552.127Z" fill="#481D08"/>
<path fill-rule="evenodd" clip-rule="evenodd" d="M134.262 324.096C134.824 325.276 134.323 326.688 133.143 327.249C122.747 332.2 99.6179 351.559 93.4439 388.603C93.2291 389.892 92.0099 390.763 90.7208 390.548C89.4317 390.333 88.5609 389.114 88.7757 387.825C95.222 349.147 119.419 328.543 131.108 322.977C132.288 322.415 133.7 322.916 134.262 324.096Z" fill="#481D08"/>
<path fill-rule="evenodd" clip-rule="evenodd" d="M146.863 316.167C147.448 317.336 146.974 318.757 145.805 319.342C145.056 319.716 144.504 319.981 144.074 320.187C143.49 320.467 143.131 320.639 142.809 320.832C142.515 321.008 142.359 321.128 141.983 321.693C141.258 322.78 139.789 323.074 138.701 322.349C137.614 321.624 137.32 320.155 138.045 319.068C138.72 318.055 139.354 317.386 140.374 316.774C140.869 316.477 141.541 316.153 142.336 315.77C142.755 315.567 143.209 315.349 143.688 315.109C144.857 314.524 146.279 314.998 146.863 316.167Z" fill="#481D08"/>
<mask id="mask3_1006_505" style="mask-type:alpha" maskUnits="userSpaceOnUse" x="54" y="618" width="254" height="183">
<path d="M54.5218 652.858C53.5592 625.733 69.2222 622.344 69.2222 622.344C69.2222 622.344 92.536 612.046 126.639 624.513C187.063 651.31 184.981 637.176 240.048 632.064C295.115 626.952 306.072 644.281 307.182 654.897C310.211 683.857 255.901 761.752 229.364 787.949C200.089 806.625 183.125 799.942 178.302 794.265C160.369 809.413 140.15 793.376 132.282 783.464C41.2752 734.429 60.3457 680.55 54.5218 652.858Z" fill="#AC693E"/>
</mask>
<g mask="url(#mask3_1006_505)">
<path d="M133.702 787.33C37.4727 721.262 65.3424 661.127 64.2907 615.379L-125.013 722.651C-10.9048 759.986 197.065 830.832 133.702 787.33Z" fill="#CBAB97"/>
<path d="M130.548 616.958C111.092 626.423 84.7997 675.957 135.281 798.373C121.609 753.677 101.522 654.818 130.548 616.958Z" fill="#CBAB96"/>
<path d="M242.552 632.733L233.087 620.113C257.066 665.546 187.339 771.556 166.831 810.994C233.087 724.23 242.552 668.49 242.552 632.733Z" fill="#CBAB96"/>
<path d="M304.076 627.999C305.653 655.343 286.407 733.378 196.804 826.768C254.646 783.649 357.081 683.528 304.076 627.999Z" fill="#CBAB96"/>
</g>
<path fill-rule="evenodd" clip-rule="evenodd" d="M226.903 716.938C213.532 748.902 195.298 779.935 181.335 798.232L177.573 795.361C191.263 777.422 209.303 746.748 222.537 715.112C229.151 699.302 234.537 683.315 237.587 668.608C240.646 653.863 241.313 640.606 238.683 630.153L243.272 628.998C246.154 640.448 245.344 654.516 242.221 669.57C239.091 684.662 233.592 700.948 226.903 716.938Z" fill="#481D08"/>
<path fill-rule="evenodd" clip-rule="evenodd" d="M127.883 771.212C130.043 776.919 131.841 781.67 132.822 785.102L128.271 786.402C127.338 783.136 125.663 778.715 123.579 773.213C122.198 769.566 120.636 765.445 118.992 760.87C114.918 749.537 110.465 735.744 107.427 720.488C101.352 689.987 100.898 653.451 120.606 618.937L124.716 621.284C105.783 654.44 106.117 689.682 112.068 719.563C115.043 734.498 119.411 748.047 123.445 759.269C124.993 763.573 126.511 767.585 127.883 771.212Z" fill="#481D08"/>
<path fill-rule="evenodd" clip-rule="evenodd" d="M228.873 663.548C230.149 663.833 230.952 665.098 230.667 666.373C230.486 667.182 230.324 667.972 230.157 668.786C229.654 671.23 229.106 673.895 227.89 677.933C226.269 683.314 223.456 691.181 217.923 704.62C217.425 705.829 216.042 706.405 214.834 705.907C213.626 705.41 213.049 704.027 213.547 702.818C219.055 689.439 221.803 681.734 223.358 676.568C224.508 672.751 225.003 670.346 225.497 667.944C225.671 667.097 225.845 666.25 226.048 665.342C226.333 664.067 227.598 663.263 228.873 663.548Z" fill="#481D08"/>
<path fill-rule="evenodd" clip-rule="evenodd" d="M295.163 663.548C296.439 663.833 297.242 665.098 296.957 666.373C296.777 667.182 296.614 667.972 296.447 668.786C295.944 671.23 295.396 673.895 294.18 677.933C292.56 683.314 289.746 691.181 284.213 704.62C283.715 705.829 282.333 706.405 281.124 705.907C279.916 705.41 279.339 704.027 279.837 702.818C285.345 689.439 288.093 681.734 289.648 676.568C290.798 672.751 291.293 670.346 291.787 667.944C291.961 667.097 292.135 666.25 292.338 665.342C292.623 664.067 293.888 663.263 295.163 663.548Z" fill="#481D08"/>
<path fill-rule="evenodd" clip-rule="evenodd" d="M61.3275 652.449C60.0207 652.445 58.958 653.501 58.9539 654.808C58.9513 655.636 58.9352 656.443 58.9186 657.274C58.8687 659.769 58.8143 662.489 59.1079 666.696C59.4992 672.302 60.5048 680.596 62.9311 694.926C63.1492 696.214 64.3707 697.082 65.6592 696.864C66.9477 696.645 67.8154 695.424 67.5972 694.135C65.1816 679.869 64.2046 671.748 63.829 666.366C63.5514 662.389 63.6003 659.934 63.6491 657.482C63.6664 656.618 63.6836 655.753 63.6865 654.823C63.6905 653.516 62.6344 652.453 61.3275 652.449Z" fill="#481D08"/>
<path fill-rule="evenodd" clip-rule="evenodd" d="M209.742 718.936C208.64 718.233 208.316 716.77 209.019 715.668C209.469 714.962 209.806 714.451 210.069 714.054C210.426 713.514 210.646 713.182 210.823 712.851C210.985 712.548 211.057 712.365 211.089 711.687C211.153 710.382 212.262 709.375 213.567 709.438C214.873 709.502 215.88 710.611 215.816 711.916C215.758 713.132 215.558 714.032 214.997 715.081C214.725 715.59 214.315 716.213 213.83 716.95C213.574 717.339 213.297 717.76 213.009 718.212C212.307 719.314 210.844 719.638 209.742 718.936Z" fill="#481D08"/>
<path fill-rule="evenodd" clip-rule="evenodd" d="M276.031 718.936C274.929 718.233 274.605 716.77 275.308 715.668C275.758 714.962 276.095 714.451 276.358 714.054C276.715 713.514 276.935 713.182 277.112 712.851C277.274 712.548 277.346 712.365 277.378 711.687C277.442 710.382 278.551 709.375 279.856 709.438C281.162 709.502 282.169 710.611 282.106 711.916C282.047 713.132 281.847 714.032 281.286 715.081C281.014 715.59 280.604 716.213 280.119 716.95C279.863 717.339 279.587 717.76 279.298 718.212C278.596 719.314 277.133 719.638 276.031 718.936Z" fill="#481D08"/>
<path fill-rule="evenodd" clip-rule="evenodd" d="M67.7469 710.695C68.9769 710.253 69.616 708.898 69.1743 707.668C68.8914 706.88 68.6749 706.307 68.5062 705.861C68.2773 705.256 68.1365 704.883 68.037 704.521C67.9461 704.19 67.9166 703.996 68.0343 703.328C68.2611 702.041 67.4016 700.814 66.1146 700.587C64.8275 700.36 63.6003 701.219 63.3735 702.507C63.1623 703.705 63.1583 704.627 63.4733 705.774C63.626 706.33 63.8882 707.029 64.1984 707.855C64.362 708.291 64.5389 708.762 64.7202 709.267C65.1618 710.497 66.517 711.136 67.7469 710.695Z" fill="#481D08"/>
<mask id="mask4_1006_505" style="mask-type:alpha" maskUnits="userSpaceOnUse" x="81" y="128" width="108" height="64">
<path fill-rule="evenodd" clip-rule="evenodd" d="M143.492 187.978C112.604 181.328 88.6817 156.181 82.323 148.94C81.4056 147.896 81.6516 146.345 82.8514 145.643C91.3781 140.651 123.348 123.713 154.363 130.39C161.55 131.937 168.255 134.128 174.364 136.748C175.1 137.064 175.565 137.791 175.568 138.592C175.617 150.092 178.234 173.02 188.298 186.575C189.218 187.816 188.612 189.665 187.088 189.917C175.278 191.87 160.114 191.556 143.492 187.978Z" fill="#CCE078"/>
</mask>
<g mask="url(#mask4_1006_505)">
<path d="M198.384 183.136C166.834 186.922 100.052 151.059 70.6045 132.655L108.465 241.504C151.584 220.471 229.935 179.35 198.384 183.136Z" fill="#CCE078"/>
</g>
<path d="M273.468 526.704C273.468 514.529 277.797 497.484 275.903 481.657C268.531 478.344 261.699 478.817 243.031 474.295C224.363 469.774 219.087 477.193 193.115 471.252C167.142 465.31 173.229 476.787 137.517 471.252C113.573 467.541 115.196 466.528 112.761 471.252C110.327 475.976 102.697 515.097 104.645 517.37C105.763 518.675 104.906 510.471 131.024 516.155C157.141 521.84 156.185 504.79 178.099 514.529C200.014 524.269 222.74 515.659 235.726 521.993C248.713 528.327 273.468 530.285 273.468 526.704Z" fill="#F9F1DB"/>
<path d="M186.622 517.772C181.102 517.122 180.399 515.607 179.316 513.714C235.32 518.583 245.466 514.531 260.887 510.878C276.309 507.226 274.279 481.016 275.091 481.654C280.773 486.118 273.468 520.613 273.062 527.106C268.517 530.352 250.336 526.565 241.814 524.265C239.514 523.589 234.347 521.911 232.074 520.613C229.233 518.989 215.435 517.772 213 518.583C210.565 519.395 193.521 518.583 186.622 517.772Z" fill="#FFF9E8"/>
<path d="M273.468 526.08C273.468 513.906 277.797 496.861 275.903 481.033C268.531 477.72 261.699 478.193 243.031 473.672C224.363 469.15 219.087 476.57 193.115 470.628C167.142 464.686 173.229 476.164 137.517 470.628C113.573 466.917 115.196 465.904 112.761 470.628C110.327 475.352 102.697 514.473 104.645 516.746C105.763 518.051 104.906 509.847 131.024 515.532C157.141 521.216 156.185 504.166 178.099 513.906C200.014 523.646 222.74 515.035 235.726 521.37C248.713 527.704 273.468 529.661 273.468 526.08Z" stroke="#481D08" stroke-width="4"/>
<path d="M161.866 471.512C159.535 480.298 161.054 484.498 155.153 493.426C149.251 502.354 150.418 508.177 149.285 516.558" stroke="#481D08" stroke-width="4"/>
<path d="M225.987 473.135C223.656 481.921 225.175 486.121 219.274 495.049C213.372 503.977 214.539 509.8 213.406 518.181" stroke="#481D08" stroke-width="4"/>
<path d="M116.819 474.758C118.524 475.053 119.464 476.001 125.048 476.056C130.631 476.111 131.075 476.897 133.864 477.193" stroke="#481D08" stroke-width="4" stroke-linecap="round"/>
<path d="M267.786 521.834C266.082 521.54 265.141 520.591 259.558 520.536C253.974 520.481 253.53 519.695 250.741 519.399" stroke="#481D08" stroke-width="4" stroke-linecap="round"/>
<circle cx="138.734" cy="478.005" r="1.6233" fill="#481D08"/>
<circle cx="245.872" cy="518.588" r="1.6233" transform="rotate(-180 245.872 518.588)" fill="#481D08"/>
</svg>
