<svg width="20" height="20" viewBox="0 0 20 20" fill="none" xmlns="http://www.w3.org/2000/svg">
<path d="M8 8.36C6.9 8.36 6 9.28 6 10.41C6 10.98 6.22 11.48 6.59 11.86L10 15.36L13.42 11.86C13.78 11.49 14 10.97 14 10.41C14 9.28 13.1 8.36 12 8.36C11.46 8.36 10.95 8.59 10.59 8.96L10 9.56L9.42 8.97C9.23595 8.77876 9.0155 8.62628 8.77164 8.52152C8.52777 8.41676 8.26541 8.36184 8 8.36ZM10 0L19.03 5.65C19.61 6 20 6.63 20 7.36V17.36C20 18.46 19.1 19.36 18 19.36H2C0.9 19.36 0 18.46 0 17.36V7.36C0 6.63 0.39 6 0.97 5.65L10 0ZM2 9.36V17.36H18V9.36L16 10.61V10.41C16 9.86 15.88 9.31 15.67 8.81L18 7.36L10 2.36L2 7.36L4.33 8.81C4.12 9.31 4 9.86 4 10.41V10.61L2 9.36Z" fill="#95d0f3"/>
</svg>
