<svg width="36" height="36" viewBox="0 0 36 36" fill="none" xmlns="http://www.w3.org/2000/svg">
<path d="M34.5 0H10.5C10.1022 0 9.72064 0.158036 9.43934 0.43934C9.15804 0.720645 9 1.10218 9 1.5V9H1.5C1.10218 9 0.720645 9.15804 0.43934 9.43934C0.158036 9.72064 0 10.1022 0 10.5V34.5C0 34.8978 0.158036 35.2794 0.43934 35.5607C0.720645 35.842 1.10218 36 1.5 36H25.5C25.8978 36 26.2794 35.842 26.5607 35.5607C26.842 35.2794 27 34.8978 27 34.5V27H34.5C34.8978 27 35.2794 26.842 35.5607 26.5607C35.842 26.2794 36 25.8978 36 25.5V1.5C36 1.10218 35.842 0.720645 35.5607 0.43934C35.2794 0.158036 34.8978 0 34.5 0ZM24 33H3V12H24V33ZM33 24H27V10.5C27 10.1022 26.842 9.72064 26.5607 9.43934C26.2794 9.15804 25.8978 9 25.5 9H12V3H33V24Z" fill="black"/>
</svg>
