<svg width="67" height="67" viewBox="0 0 67 67" fill="none" xmlns="http://www.w3.org/2000/svg">
<path d="M7.44444 67C5.39722 67 3.6453 66.2717 2.18867 64.815C0.732037 63.3584 0.00248148 61.6053 0 59.5555V7.44444C0 5.39722 0.729556 3.6453 2.18867 2.18867C3.64778 0.732037 5.3997 0.00248148 7.44444 0H59.5555C61.6028 0 63.3559 0.729556 64.815 2.18867C66.2742 3.64778 67.0025 5.3997 67 7.44444V59.5555C67 61.6028 66.2717 63.3559 64.815 64.815C63.3584 66.2742 61.6053 67.0025 59.5555 67H7.44444ZM11.1667 52.1111H55.8333L41.875 33.5L30.7083 48.3889L22.3333 37.2222L11.1667 52.1111Z" fill="black"/>
</svg>
