<svg width="67" height="72" viewBox="0 0 67 72" fill="none" xmlns="http://www.w3.org/2000/svg">
<path fill-rule="evenodd" clip-rule="evenodd" d="M0.175014 68.7442C2.86654 62.1036 7.47547 56.418 13.4121 52.4151C19.3487 48.4122 26.343 46.2739 33.5 46.2739C40.657 46.2739 47.6513 48.4122 53.5879 52.4151C59.5245 56.418 64.1335 62.1036 66.825 68.7442C67.4722 70.3387 66.2394 72 64.5239 72H2.47612C0.760563 72 -0.472173 70.3387 0.175014 68.7442Z" fill="#95D0F3"/>
<path d="M33.5 41.1397C38.949 41.1397 44.1749 38.9721 48.0279 35.1139C51.881 31.2556 54.0456 26.0226 54.0456 20.5662L53.3265 15.1656C52.1882 10.9881 49.7632 7.2764 46.3966 4.55871C43.0299 1.84101 38.8931 0.255717 34.5747 0.0283929C30.2563 -0.198931 25.9762 0.94329 22.3436 3.29254C18.7109 5.64179 15.9106 9.0784 14.3412 13.1134L13.0879 18.2208C13.0879 18.2208 13.0396 24.0197 13.9147 26.7838C14.7899 29.548 16.2386 32.0956 18.166 34.2597C20.0934 36.4238 22.4559 38.1555 25.0985 39.3412C27.7412 40.5268 30.6042 41.1398 33.5 41.1397Z" fill="#95D0F3"/>
</svg>
