<svg width="82" height="86" viewBox="0 0 82 86" fill="none" xmlns="http://www.w3.org/2000/svg">
<path d="M66.5584 4.2726C66.4379 3.55162 66.164 2.86478 65.7549 2.25838C65.3459 1.65198 64.8113 1.14012 64.1872 0.757319C63.5631 0.374514 62.8639 0.129657 62.1369 0.0392571C61.4099 -0.0511429 60.672 0.0150156 59.9727 0.233272L24.0978 11.4156C23.0546 11.7405 22.1429 12.3895 21.4956 13.268C20.8484 14.1464 20.4995 15.2083 20.5 16.2986V57.8781C18.191 56.1504 15.3649 55.251 12.4796 55.3259C9.59432 55.4007 6.81887 56.4452 4.60294 58.2903C2.387 60.1354 0.860407 62.6728 0.270488 65.4916C-0.31943 68.3104 0.0618896 71.2453 1.35267 73.8208C2.64344 76.3964 4.76806 78.4617 7.38228 79.6821C9.9965 80.9025 12.9472 81.2066 15.7562 80.545C18.5653 79.8834 21.0681 78.2949 22.8593 76.037C24.6505 73.779 25.625 70.9838 25.625 68.1042V31.6378L61.5 20.4504V34.9868C63.2579 35.1402 64.9747 35.4624 66.625 35.9277V5.11115C66.625 4.82481 66.5994 4.54871 66.5584 4.2726ZM82 62.9912C82 69.0935 79.5702 74.9459 75.2451 79.2609C70.9201 83.5759 65.0541 86 58.9375 86C52.8209 86 46.9549 83.5759 42.6299 79.2609C38.3048 74.9459 35.875 69.0935 35.875 62.9912C35.875 56.8888 38.3048 51.0364 42.6299 46.7215C46.9549 42.4065 52.8209 39.9823 58.9375 39.9823C65.0541 39.9823 70.9201 42.4065 75.2451 46.7215C79.5702 51.0364 82 56.8888 82 62.9912ZM70.4021 60.767L55.0579 52.3304C54.668 52.1152 54.2285 52.0052 53.783 52.0112C53.3374 52.0172 52.9012 52.1391 52.5172 52.3647C52.1333 52.5903 51.8149 52.9118 51.5936 53.2977C51.3723 53.6835 51.2556 54.1203 51.2551 54.5648V71.438C51.2547 71.8829 51.3707 72.3203 51.5917 72.7069C51.8126 73.0934 52.1309 73.4157 52.515 73.6419C52.8991 73.8681 53.3357 73.9904 53.7817 73.9966C54.2277 74.0029 54.6676 73.8929 55.0579 73.6775L70.4021 65.2409C70.8026 65.0198 71.1365 64.6957 71.369 64.3023C71.6014 63.909 71.7241 63.4606 71.7241 63.0039C71.7241 62.5473 71.6014 62.0989 71.369 61.7055C71.1365 61.3121 70.8026 60.9881 70.4021 60.767Z" fill="white"/>
</svg>
