<svg width="87" height="87" viewBox="0 0 87 87" fill="none" xmlns="http://www.w3.org/2000/svg">
<path d="M71.7911 76.1842L81.6896 86.0889C82.2729 86.6723 83.0642 87 83.8892 87C84.7142 87 85.5055 86.6723 86.0889 86.0889C86.6723 85.5055 87 84.7142 87 83.8892C87 83.0642 86.6723 82.2729 86.0889 81.6896L5.31045 0.911129C5.02158 0.622266 4.67865 0.393126 4.30123 0.236794C3.92382 0.0804627 3.5193 3.04367e-09 3.11079 0C2.70227 -3.04367e-09 2.29776 0.0804627 1.92034 0.236794C1.54292 0.393126 1.19999 0.622266 0.911129 0.911129C0.622266 1.19999 0.393126 1.54292 0.236794 1.92034C0.0804627 2.29776 -3.04367e-09 2.70227 0 3.11079C3.04367e-09 3.5193 0.0804627 3.92382 0.236794 4.30123C0.393126 4.67865 0.622266 5.02158 0.911129 5.31045L24.8588 29.2519V63.8002C22.4899 62.4325 19.7358 61.8846 17.0237 62.2415C14.3116 62.5984 11.7931 63.8401 9.85861 65.7742C7.92412 67.7082 6.68179 70.2264 6.32426 72.9384C5.96673 75.6504 6.51398 78.4046 7.88114 80.7739C9.24831 83.1432 11.359 84.9952 13.8859 86.0428C16.4128 87.0903 19.2148 87.2749 21.8573 86.5679C24.4998 85.8608 26.8352 84.3017 28.5013 82.1322C30.1675 79.9627 31.0713 77.3041 31.0726 74.5686V39.4735L34.0241 38.4172L54.3119 58.705C52.9589 59.8011 51.8513 61.1694 51.061 62.7211C50.2707 64.2728 49.8154 65.9732 49.7244 67.7122C49.6335 69.4511 49.909 71.1898 50.5332 72.8154C51.1573 74.441 52.1161 75.9174 53.3474 77.1487C54.5787 78.38 56.055 79.3388 57.6807 79.9629C59.3063 80.587 61.045 80.8626 62.7839 80.7716C64.5229 80.6807 66.2233 80.2253 67.775 79.435C69.3267 78.6448 70.6949 77.5372 71.7911 76.1842ZM68.3549 26.1637V55.1756L74.5686 61.3893V5.75783C74.5696 4.96022 74.3786 4.17409 74.0117 3.46584C73.6449 2.75758 73.113 2.14799 72.461 1.68855C71.8091 1.22911 71.0561 0.933299 70.2657 0.826108C69.4753 0.718917 68.6708 0.803491 67.9199 1.07269L28.3882 15.1965L46.9797 33.7942L68.3549 26.1637Z" fill="black"/>
</svg>
