<svg width="86" height="69" viewBox="0 0 86 69" fill="none" xmlns="http://www.w3.org/2000/svg">
<path d="M34.4 21.5625C29.67 21.5625 25.8 25.53 25.8 30.4031C25.8 32.8613 26.746 35.0175 28.337 36.6562L43 51.75L57.706 36.6562C59.254 35.0606 60.2 32.8181 60.2 30.4031C60.2 25.53 56.33 21.5625 51.6 21.5625C49.278 21.5625 47.085 22.5544 45.537 24.15L43 26.7375L40.506 24.1931C39.7146 23.3684 38.7667 22.7108 37.718 22.2591C36.6694 21.8073 35.5413 21.5704 34.4 21.5625ZM77.4 0C82.13 0 86 3.88125 86 8.625V60.375C86 65.1188 82.13 69 77.4 69H8.6C3.87 69 0 65.1188 0 60.375V8.625C0 3.88125 3.87 0 8.6 0H77.4ZM63.21 17.5088L77.4 8.625H8.6L22.79 17.5088C21.027 19.1906 19.565 21.2175 18.619 23.5031L8.6 17.25V60.375H77.4V17.25L67.381 23.5031C66.435 21.2175 64.973 19.1906 63.21 17.5088Z" fill="black"/>
</svg>
