<svg width="80" height="80" viewBox="0 0 80 80" fill="none" xmlns="http://www.w3.org/2000/svg">
<path d="M49.5238 38.0952H55.2381V54.2857L66.1333 60.7238L63.2762 65.3714L49.5238 57.1429V38.0952ZM80 53.3333C80 60.4058 77.1905 67.1885 72.1895 72.1895C67.1885 77.1905 60.4058 80 53.3333 80C41.9048 80 32 72.6857 28.2667 62.4762L22.8571 60.5714L2.51429 68.4571L1.90476 68.5714C1.39959 68.5714 0.915104 68.3708 0.557892 68.0135C0.20068 67.6563 0 67.1718 0 66.6667V9.06667C0 8.19048 0.571428 7.50476 1.37143 7.2381L22.8571 0L45.7143 8L66.0571 0H66.6667C67.1718 0 67.6563 0.20068 68.0135 0.557892C68.3708 0.915104 68.5714 1.39959 68.5714 1.90476V31.4286C75.4667 36.1905 80 44.2667 80 53.3333ZM26.6667 53.3333C26.6667 41.2571 34.7048 31.0476 45.7143 27.7714V15.6571L22.8571 7.61905V52.9143L26.6667 54.2476V53.3333ZM53.3333 34.2857C48.2816 34.2857 43.4368 36.2925 39.8646 39.8646C36.2925 43.4368 34.2857 48.2816 34.2857 53.3333C34.2857 58.3851 36.2925 63.2299 39.8646 66.802C43.4368 70.3742 48.2816 72.381 53.3333 72.381C58.3851 72.381 63.2299 70.3742 66.802 66.802C70.3742 63.2299 72.381 58.3851 72.381 53.3333C72.381 48.2816 70.3742 43.4368 66.802 39.8646C63.2299 36.2925 58.3851 34.2857 53.3333 34.2857Z" fill="black"/>
</svg>
